<svg xmlns="http://www.w3.org/2000/svg" viewBox="0 0 520 120" role="img" aria-labelledby="title desc">
  <title id="title">BitLabs</title>
  <desc id="desc">BitLabs text logo</desc>
  <defs>
    <linearGradient id="g" x1="0%" y1="0%" x2="100%" y2="100%">
      <stop offset="0%" stop-color="#1d4ed8"/>
      <stop offset="100%" stop-color="#0891b2"/>
    </linearGradient>
  </defs>
  <rect x="8" y="8" width="104" height="104" rx="26" fill="url(#g)"/>
  <path d="M40 34h18c16 0 24 8 24 20 0 7-3 12-9 15 8 2 12 8 12 16 0 13-10 21-26 21H40V34zm17 29h4c7 0 10-3 10-8s-3-8-10-8h-4v16zm0 30h7c7 0 11-3 11-9 0-5-4-9-11-9h-7v18z" fill="#fff"/>
  <text x="136" y="78" font-size="58" font-family="Segoe UI, Arial, sans-serif" font-weight="700" fill="#0f172a">BitLabs</text>
</svg>
