<svg width="220" height="48" viewBox="0 0 220 48" fill="none" xmlns="http://www.w3.org/2000/svg">
<path d="M5.54142 29.2861C4.05127 29.994 2.70209 30.6352 1.22183 31.3381C-0.114981 27.7303 -0.223805 24.151 0.270851 20.5803C1.14516 14.2645 4.19595 9.10467 9.1858 5.16765C19.0567 -2.61976 33.3003 -1.47492 41.801 7.71848C50.3116 16.9218 50.3561 30.9334 41.8443 40.2345C33.6392 49.2002 21.1355 49.522 14.0606 45.6357C15.1328 44.4005 16.1704 43.1863 17.3526 42.0081C24.305 44.2792 30.7368 43.3262 36.4266 38.659C40.5767 35.2554 42.8781 30.775 43.2751 25.4085C44.095 14.3375 35.3494 4.96343 24.3408 4.84957C18.013 4.78397 12.782 7.32862 8.8853 12.3337C4.98246 17.3475 4.02653 23.0445 5.54142 29.2861Z" fill="url(#paint0_linear_516_2127)"/>
<path d="M39.8824 14.5303C39.2455 15.2085 38.6383 15.9177 37.9656 16.5588C32.1533 22.09 26.3263 27.6062 20.5079 33.1312C17.4546 36.031 14.4137 38.942 11.3629 41.8431C10.8695 42.3122 10.3513 42.7528 9.77507 43.2702C7.02602 41.2763 4.87302 38.8282 3.11328 35.7984C4.43401 34.8949 5.80174 34.2228 7.22759 33.4245C7.87312 34.2958 8.48031 35.1164 9.1518 36.0236C9.62667 35.7142 10.0187 35.4778 10.3922 35.2142C19.6187 28.6929 28.8416 22.1654 38.0719 15.6504C38.6531 15.2407 39.2962 14.9201 39.9108 14.5587C39.9108 14.5575 39.8824 14.5303 39.8824 14.5303Z" fill="url(#paint1_linear_516_2127)"/>
<path d="M76.8876 19.4857C75.5817 19.4857 74.4032 19.5192 73.2271 19.4585C72.9798 19.4461 72.6929 19.1293 72.521 18.8855C71.5045 17.4349 70.0724 17.0253 68.4388 17.3508C66.9326 17.6503 66.1733 18.7778 65.7961 20.1887C65.4697 21.4091 65.5364 22.622 65.9965 23.7928C67.0526 26.4773 70.5721 27.0083 72.2996 24.6852C72.8561 23.9376 73.4188 23.679 74.2783 23.7421C75.1229 23.804 75.9725 23.7941 77.062 23.8225C76.7701 24.6518 76.6217 25.3114 76.3212 25.8919C74.7977 28.84 71.5577 30.3067 67.9875 29.7076C64.4334 29.1123 62.0343 26.5689 61.6546 22.9166C61.4382 20.8348 61.6719 18.8149 62.8158 16.9894C64.0883 14.9596 65.9371 13.8519 68.3078 13.6328C70.1256 13.4657 71.9014 13.6068 73.5388 14.5363C75.2206 15.4918 76.2928 16.9201 76.8418 18.758C76.8913 18.9201 76.8666 19.1045 76.8876 19.4857Z" fill="#00BE9D"/>
<path d="M106.975 29.6414C105.653 29.6414 104.33 29.6785 103.012 29.6117C102.732 29.5981 102.411 29.2466 102.214 28.9756C101.5 27.9829 100.831 26.9569 100.14 25.9457C99.9389 25.6512 99.7225 25.3677 99.4096 24.937C99.14 25.3207 98.9063 25.6116 98.7171 25.9296C98.1285 26.9198 97.5336 27.9074 96.9858 28.9211C96.6915 29.4669 96.2896 29.6934 95.6836 29.6773C94.8205 29.6538 93.956 29.6823 93.0929 29.6637C92.8233 29.6575 92.5562 29.5733 92.1419 29.4978C92.3694 29.082 92.5215 28.7726 92.7021 28.4805C93.9734 26.4309 95.2285 24.3702 96.5369 22.3441C96.9524 21.7018 96.9314 21.203 96.4961 20.5879C95.2879 18.8861 94.1255 17.1509 92.9519 15.4231C92.6328 14.954 92.3422 14.4664 91.9688 13.8785C92.3224 13.7931 92.545 13.6965 92.7689 13.6928C93.7038 13.6743 94.6424 13.7176 95.576 13.6718C96.2747 13.6371 96.7051 13.9206 97.0773 14.4936C97.8787 15.7263 98.7381 16.9219 99.6532 18.2462C99.8993 17.9554 100.101 17.7709 100.237 17.5469C100.871 16.5011 101.502 15.4503 102.107 14.3859C102.384 13.897 102.742 13.6606 103.321 13.6767C104.458 13.7064 105.595 13.6854 106.969 13.6854C106.674 14.2423 106.515 14.5877 106.315 14.907C105.075 16.8922 103.855 18.8898 102.564 20.8404C102.109 21.5285 102.164 22.026 102.625 22.6758C103.962 24.5521 105.238 26.4705 106.531 28.3778C106.745 28.6934 106.926 29.0325 107.121 29.3605C107.073 29.4533 107.024 29.5474 106.975 29.6414Z" fill="#00BE9D"/>
<path d="M79.3535 13.7386C79.7047 13.72 80.093 13.6854 80.4813 13.6841C82.0296 13.678 83.5778 13.6643 85.1249 13.6891C85.7692 13.7002 86.4196 13.7559 87.054 13.8686C89.7388 14.3451 91.3402 16.3328 91.2648 19.0519C91.1918 21.7154 89.4111 23.6919 86.7511 24.0001C85.9683 24.0905 85.1694 24.0509 84.3792 24.0781C83.9933 24.0917 83.6087 24.1226 83.0646 24.1561C83.0646 25.9841 83.0646 27.7292 83.0646 29.5696C81.7018 29.5696 80.506 29.5696 79.3361 29.5696C78.9948 28.577 79.0047 14.7102 79.3535 13.7386ZM83.1314 20.8948C84.1863 20.9567 85.1768 21.0941 86.1389 20.6869C86.871 20.3775 87.2408 19.7153 87.2086 18.8613C87.174 17.9529 86.7276 17.2721 85.9151 17.0803C85.0086 16.8674 84.0849 16.8848 83.1302 17.0828C83.1314 18.37 83.1314 19.5767 83.1314 20.8948Z" fill="#00BE9D"/>
<path d="M120.21 23.2429C121.592 25.3581 122.884 27.3359 124.181 29.3211C122.916 29.9882 122.023 29.7852 121.351 28.7419C120.393 27.2591 119.447 25.7702 118.494 24.2863C117.701 23.0498 117.421 22.9508 115.756 23.3964C115.756 25.3804 115.756 27.4126 115.756 29.5538C114.979 29.5538 114.365 29.5538 113.656 29.5538C113.656 24.3197 113.656 19.1611 113.656 13.9765C113.896 13.9059 114.063 13.8131 114.231 13.8131C116.138 13.8106 118.053 13.7215 119.951 13.8527C123.771 14.1176 124.881 17.5731 123.987 20.2601C123.574 21.5015 122.704 22.3184 121.489 22.7763C121.124 22.9162 120.756 23.0461 120.21 23.2429ZM115.823 15.7154C115.823 17.7278 115.823 19.5744 115.823 21.5201C117.35 21.6265 118.804 21.8035 120.234 21.3517C121.499 20.952 122.053 20.02 122.015 18.5039C121.979 17.0954 121.34 16.1387 120.102 15.8441C118.731 15.5174 117.338 15.6312 115.823 15.7154Z" fill="#1E1E1E"/>
<path d="M179.144 29.5078C178.828 29.5796 178.659 29.6427 178.485 29.6551C177.271 29.7442 177.095 29.5932 177.092 28.379C177.083 24.7415 177.088 21.1028 177.088 17.4653C177.088 16.6014 177.079 15.7362 177.098 14.8723C177.106 14.5617 177.185 14.2523 177.229 13.949C177.492 13.8859 177.663 13.808 177.835 13.808C179.671 13.803 181.508 13.751 183.34 13.8327C184.829 13.8983 186.155 14.4293 187.025 15.7536C188.783 18.4319 187.658 21.8082 184.65 22.8974C184.386 22.9927 184.136 23.1264 183.779 23.286C185.122 25.3443 186.426 27.3443 187.745 29.3654C186.245 29.9731 185.558 29.7763 184.816 28.6191C183.902 27.1958 182.991 25.77 182.078 24.3455C181.246 23.0471 180.996 22.9531 179.24 23.3863C179.209 25.3925 179.177 27.4532 179.144 29.5078ZM179.283 21.5446C180.855 21.6164 182.285 21.7922 183.688 21.3874C184.929 21.0297 185.517 20.1696 185.554 18.8131C185.597 17.287 185.062 16.2821 183.828 15.9132C182.368 15.4776 180.864 15.5976 179.283 15.7709C179.283 17.7054 179.283 19.552 179.283 21.5446Z" fill="#1E1E1E"/>
<path d="M204.587 24.5942C204.237 26.3009 203.254 27.5126 201.954 28.4693C199.489 30.285 194.452 30.5919 191.66 27.4495C190.327 25.9494 189.748 24.166 189.654 22.2092C189.57 20.453 189.866 18.7561 190.765 17.2152C192.086 14.954 194.075 13.7361 196.682 13.6606C197.748 13.6297 198.854 13.7089 199.884 13.97C201.96 14.4961 203.401 15.8649 204.295 17.8031C204.425 18.0853 204.483 18.3997 204.569 18.6856C203.309 19.2982 202.648 19.1324 201.986 18.1026C200.672 16.0568 198.386 15.1941 195.854 15.7857C193.895 16.2436 192.254 18.1571 191.998 20.3874C191.858 21.6027 191.82 22.8305 192.23 24.0249C192.933 26.067 194.246 27.4247 196.447 27.7106C198.735 28.0077 200.647 27.3344 201.966 25.3368C202.705 24.2192 203.058 24.1016 204.587 24.5942Z" fill="#1E1E1E"/>
<path d="M217.379 22.4489C214.755 22.4489 212.226 22.4489 209.593 22.4489C209.304 24.8215 209.651 27.157 209.389 29.4949C209.121 29.5605 208.92 29.6422 208.716 29.6546C207.55 29.7264 207.382 29.5828 207.38 28.433C207.372 23.9675 207.375 19.5008 207.381 15.0353C207.381 14.6862 207.446 14.3372 207.49 13.8941C208.122 13.8941 208.672 13.8941 209.342 13.8941C209.389 14.2914 209.47 14.6689 209.473 15.0452C209.489 16.4499 209.473 17.8547 209.486 19.2594C209.489 19.6431 209.547 20.0255 209.587 20.4884C212.209 20.4884 214.736 20.4884 217.358 20.4884C217.401 20.0342 217.466 19.6505 217.469 19.2669C217.483 17.898 217.469 16.5291 217.478 15.1615C217.487 13.8446 217.675 13.6825 219.013 13.8137C219.151 13.8273 219.286 13.8855 219.532 13.9535C219.574 14.2766 219.657 14.6206 219.657 14.9647C219.666 19.4674 219.668 23.9688 219.659 28.4714C219.657 29.5494 218.811 30.0865 217.88 29.5605C217.65 29.4306 217.504 28.9702 217.497 28.6583C217.457 27.0382 217.482 25.4168 217.471 23.7967C217.469 23.3734 217.416 22.9539 217.379 22.4489Z" fill="#1E1E1E"/>
<path d="M175.068 29.6383C174.345 29.6383 173.77 29.7176 173.234 29.6062C172.961 29.5492 172.676 29.1891 172.542 28.8995C172.24 28.2497 171.994 27.5665 171.788 26.8783C171.605 26.2645 171.254 26.0033 170.615 26.0107C168.889 26.0318 167.161 26.0293 165.435 26.0132C164.85 26.0083 164.496 26.2236 164.322 26.8028C164.135 27.4217 163.884 28.0207 163.654 28.6259C163.269 29.6359 163.173 29.699 162.076 29.668C161.861 29.6619 161.644 29.6445 161.434 29.6049C161.339 29.5876 161.256 29.5059 161.098 29.4106C161.209 29.0418 161.3 28.6655 161.436 28.3066C163.063 23.9983 164.693 19.6924 166.327 15.3878C166.797 14.1502 167.677 13.6997 168.921 14.1551C169.22 14.2653 169.481 14.6836 169.613 15.019C170.403 17.0277 171.148 19.0538 171.911 21.0724C172.852 23.5626 173.797 26.0516 174.734 28.5418C174.833 28.8066 174.901 29.0839 175.068 29.6383ZM170.695 24.2322C170.206 21.9809 168.454 17.5451 167.874 17.1045C167.02 19.456 166.081 21.7593 165.342 24.2322C167.2 24.2322 168.906 24.2322 170.695 24.2322Z" fill="#1E1E1E"/>
<path d="M147.791 17.5849C147.009 17.5849 146.319 17.5849 145.605 17.5849C145.508 17.4154 145.419 17.2631 145.334 17.1072C144.492 15.5737 143.088 14.9883 141.42 15.4772C139.822 15.945 139.231 18.0194 140.426 19.2236C140.912 19.7125 141.599 20.0417 142.25 20.3177C143.339 20.7806 144.502 21.0789 145.581 21.5628C147.839 22.5752 148.683 24.5641 147.936 26.9046C147.625 27.8774 147.013 28.6064 146.143 29.1163C144.038 30.349 140.771 29.9814 138.975 28.3205C138.094 27.5061 137.69 26.6038 137.706 25.3835C138.363 25.3835 139.023 25.3835 139.708 25.3835C139.783 25.5097 139.87 25.6236 139.922 25.7523C140.651 27.5581 141.943 28.297 143.837 27.9851C145.681 27.6818 146.558 25.4837 145.313 24.0889C144.812 23.527 144.064 23.1334 143.359 22.819C142.278 22.3376 141.111 22.0492 140.026 21.5752C137.78 20.5925 136.946 18.5367 137.766 16.2235C138.155 15.1257 138.94 14.4078 139.985 14.0093C141.662 13.3707 143.391 13.3682 145.049 14.0242C146.575 14.6269 147.554 15.7569 147.791 17.5849Z" fill="#1E1E1E"/>
<path d="M135.433 13.8931C135.433 14.4278 135.433 14.8696 135.433 15.486C133.236 15.486 131.099 15.486 128.882 15.486C128.882 17.293 128.882 18.9254 128.882 20.7287C130.86 20.7659 132.771 20.8017 134.717 20.8376C134.717 21.4577 134.717 21.9033 134.717 22.4899C132.744 22.4899 130.855 22.4899 128.887 22.4899C128.766 24.3365 128.707 26.0396 128.929 27.8911C131.112 27.8911 133.219 27.8911 135.425 27.8911C135.464 28.4802 135.493 28.9258 135.534 29.5558C132.56 29.7773 129.687 29.6573 126.721 29.635C126.672 29.104 126.609 28.7216 126.608 28.3391C126.601 23.9454 126.599 19.5517 126.606 15.158C126.608 13.8584 126.672 13.7941 127.93 13.7891C130.017 13.7805 132.105 13.7817 134.191 13.7904C134.578 13.7928 134.962 13.8522 135.433 13.8931Z" fill="#1E1E1E"/>
<path d="M153.068 20.7334C155.045 20.768 156.93 20.8015 158.889 20.8361C158.889 21.4265 158.889 21.872 158.889 22.4612C156.954 22.4612 155.066 22.4612 153.078 22.4612C152.895 24.3016 152.932 26.0009 153.058 27.8698C155.234 27.8698 157.334 27.8698 159.571 27.8698C159.602 28.4998 159.626 28.9676 159.655 29.5852C156.672 29.73 153.827 29.7015 150.89 29.605C150.844 29.0963 150.781 28.7139 150.78 28.3314C150.772 23.939 150.771 19.5452 150.777 15.1527C150.779 13.8544 150.839 13.7938 152.101 13.7888C154.223 13.7802 156.346 13.7765 158.468 13.7913C159.661 13.8 159.78 13.9782 159.527 15.3656C157.439 15.6651 155.285 15.3409 153.066 15.5612C153.068 17.2593 153.068 18.8905 153.068 20.7334Z" fill="#1E1E1E"/>
<path d="M39.9113 14.5578L39.9236 14.5107L39.8828 14.5305L39.9113 14.5578Z" fill="#1E1E1E"/>
<defs>
<linearGradient id="paint0_linear_516_2127" x1="3.47879" y1="72.96" x2="92.8752" y2="61.4299" gradientUnits="userSpaceOnUse">
<stop stop-color="#00BE9D"/>
<stop stop-color="#00BE9D"/>
<stop offset="0.790206" stop-color="#00FF87"/>
</linearGradient>
<linearGradient id="paint1_linear_516_2127" x1="5.76877" y1="58.2149" x2="73.3173" y2="47.1078" gradientUnits="userSpaceOnUse">
<stop stop-color="#00BE9D"/>
<stop stop-color="#00BE9D"/>
<stop offset="0.790206" stop-color="#00FF87"/>
</linearGradient>
</defs>
</svg>
