<svg width="120" height="120" viewBox="0 0 120 120" fill="none" xmlns="http://www.w3.org/2000/svg">
  <defs>
    <linearGradient id="bg-main" x1="16" y1="14" x2="108" y2="108" gradientUnits="userSpaceOnUse">
      <stop stop-color="#FBBF24"/>
      <stop offset="0.48" stop-color="#F97316"/>
      <stop offset="1" stop-color="#2563EB"/>
    </linearGradient>
    <radialGradient id="bg-glow-warm" cx="0" cy="0" r="1" gradientUnits="userSpaceOnUse" gradientTransform="translate(46 46) rotate(45) scale(28 18)">
      <stop stop-color="#F97316" stop-opacity="0.9"/>
      <stop offset="1" stop-color="#F97316" stop-opacity="0"/>
    </radialGradient>
    <radialGradient id="bg-glow-cool" cx="0" cy="0" r="1" gradientUnits="userSpaceOnUse" gradientTransform="translate(84 76) rotate(35) scale(30 20)">
      <stop stop-color="#38BDF8" stop-opacity="0.95"/>
      <stop offset="1" stop-color="#38BDF8" stop-opacity="0"/>
    </radialGradient>
  </defs>
  <rect x="8" y="8" width="104" height="104" rx="28" fill="url(#bg-main)"/>
  <rect x="8" y="8" width="104" height="104" rx="28" fill="url(#bg-glow-warm)"/>
  <rect x="8" y="8" width="104" height="104" rx="28" fill="url(#bg-glow-cool)"/>

  <g stroke="#FFFFFF" stroke-width="11" stroke-linecap="round" stroke-linejoin="round">
    <path d="M31 74C31 50 45 36 67 36H84"/>
    <path d="M31 74C31 89 40 99 56 99H86"/>
    <path d="M36 68H80"/>
    <path d="M58 74C58 50 72 36 94 36H111"/>
    <path d="M58 74C58 89 67 99 83 99H112"/>
    <path d="M64 68H107"/>
  </g>
</svg>
