<svg width="480" height="96" viewBox="0 0 480 96" fill="none" xmlns="http://www.w3.org/2000/svg">
  <defs>
    <linearGradient id="kw-card" x1="0" y1="0" x2="480" y2="96" gradientUnits="userSpaceOnUse">
      <stop stop-color="#f0fdf4" />
      <stop offset="1" stop-color="#dcfce7" />
    </linearGradient>
    <linearGradient id="kw-ring" x1="0" y1="0" x2="1" y2="1">
      <stop stop-color="#22c55e" />
      <stop offset="1" stop-color="#15803d" />
    </linearGradient>
    <linearGradient id="kw-fill" x1="0" y1="0" x2="1" y2="1">
      <stop stop-color="#bef264" />
      <stop offset="1" stop-color="#84cc16" />
    </linearGradient>
  </defs>
  <rect x="2" y="2" width="476" height="92" rx="20" fill="url(#kw-card)" />
  <rect x="2" y="2" width="476" height="92" rx="20" stroke="#4ade80" stroke-width="4" />
  <circle cx="56" cy="48" r="30" fill="url(#kw-ring)" />
  <circle cx="56" cy="48" r="24" fill="url(#kw-fill)" />
  <circle cx="56" cy="48" r="8" fill="#f8fafc" />
  <ellipse cx="56" cy="25.5" rx="1.8" ry="3.2" fill="#1f2937" />
  <ellipse cx="69.2" cy="29.8" rx="1.8" ry="3.2" transform="rotate(24 69.2 29.8)" fill="#1f2937" />
  <ellipse cx="77.8" cy="40.5" rx="1.8" ry="3.2" transform="rotate(54 77.8 40.5)" fill="#1f2937" />
  <ellipse cx="79.8" cy="54.8" rx="1.8" ry="3.2" transform="rotate(78 79.8 54.8)" fill="#1f2937" />
  <ellipse cx="74.3" cy="67.2" rx="1.8" ry="3.2" transform="rotate(108 74.3 67.2)" fill="#1f2937" />
  <ellipse cx="62.8" cy="74.7" rx="1.8" ry="3.2" transform="rotate(138 62.8 74.7)" fill="#1f2937" />
  <ellipse cx="49.2" cy="74.7" rx="1.8" ry="3.2" transform="rotate(168 49.2 74.7)" fill="#1f2937" />
  <ellipse cx="37.7" cy="67.2" rx="1.8" ry="3.2" transform="rotate(198 37.7 67.2)" fill="#1f2937" />
  <ellipse cx="32.2" cy="54.8" rx="1.8" ry="3.2" transform="rotate(228 32.2 54.8)" fill="#1f2937" />
  <ellipse cx="34.2" cy="40.5" rx="1.8" ry="3.2" transform="rotate(258 34.2 40.5)" fill="#1f2937" />
  <ellipse cx="42.8" cy="29.8" rx="1.8" ry="3.2" transform="rotate(288 42.8 29.8)" fill="#1f2937" />
  <text x="104" y="62" fill="#14532d" font-family="Inter, Arial, sans-serif" font-size="44" font-weight="800" letter-spacing="1.8">
    KIWIWALL
  </text>
</svg>
