<?xml version="1.0" encoding="UTF-8"?>
<svg width="197px" height="42px" viewBox="0 0 197 42" version="1.1" xmlns="http://www.w3.org/2000/svg" xmlns:xlink="http://www.w3.org/1999/xlink">
    <!-- Generator: sketchtool 51.2 (57519) - http://www.bohemiancoding.com/sketch -->
    <title>0A3F4730-0775-4480-850E-223AF320BFC5</title>
    <desc>Created with sketchtool.</desc>
    <defs></defs>
    <g id="Mobile" stroke="none" stroke-width="1" fill="none" fill-rule="evenodd">
        <g id="homepage-mobile" transform="translate(-23.000000, -7516.000000)">
            <g id="footer-copy" transform="translate(-2.000000, 7480.000000)">
                <g id="logo" transform="translate(25.000000, 36.000000)">
                    <path d="M2.87283659,1.42656818 C2.08099268,1.42656818 1.43665854,2.06706818 1.43665854,2.85313636 L1.43665854,38.6996591 C1.43665854,39.4857273 2.08099268,40.1262273 2.87283659,40.1262273 L25.315461,40.1262273 C26.1068244,40.1262273 26.751639,39.4857273 26.751639,38.6996591 L26.751639,2.85313636 C26.751639,2.06706818 26.1068244,1.42656818 25.315461,1.42656818 L2.87283659,1.42656818 Z M25.315461,41.5527955 L2.87283659,41.5527955 C1.28866829,41.5527955 0,40.2732273 0,38.6996591 L0,2.85313636 C0,1.27956818 1.28866829,0 2.87283659,0 L25.315461,0 C26.8996293,0 28.1878171,1.27956818 28.1878171,2.85313636 L28.1878171,38.6996591 C28.1878171,40.2732273 26.8996293,41.5527955 25.315461,41.5527955 Z" id="Fill-1" fill="#9855FC"></path>
                    <path d="M5.38646049,30.6744614 L14.5431166,30.6744614 C14.7429995,30.6744614 14.9342337,30.7570295 15.0702117,30.903075 L19.0313532,35.1550977 L19.0313532,31.3875068 C19.0313532,30.9932795 19.352319,30.6744614 19.7496824,30.6744614 L22.801741,30.6744614 L22.801741,7.84698409 L5.38646049,7.84698409 L5.38646049,30.6744614 Z M19.7496824,37.6894159 C19.5531629,37.6894159 19.3609678,37.6092341 19.2221068,37.4608023 L14.2283971,32.1010295 L4.66813122,32.1010295 C4.27124829,32.1010295 3.95028244,31.7817341 3.95028244,31.3875068 L3.95028244,7.13393864 C3.95028244,6.73971136 4.27124829,6.42041591 4.66813122,6.42041591 L23.5200702,6.42041591 C23.9164727,6.42041591 24.237919,6.73971136 24.237919,7.13393864 L24.237919,31.3875068 C24.237919,31.7817341 23.9164727,32.1010295 23.5200702,32.1010295 L20.4675312,32.1010295 L20.4675312,36.9758932 C20.4675312,37.2689386 20.2868678,37.5333477 20.0110678,37.6397795 C19.9260215,37.6731886 19.8380922,37.6894159 19.7496824,37.6894159 Z" id="Fill-3" fill="#9855FC"></path>
                    <path d="M17.0563561,4.53304091 L11.131461,4.53304091 C10.734578,4.53304091 10.4136122,4.21422273 10.4136122,3.81999545 C10.4136122,3.42576818 10.734578,3.10647273 11.131461,3.10647273 L17.0563561,3.10647273 C17.453239,3.10647273 17.7746854,3.42576818 17.7746854,3.81999545 C17.7746854,4.21422273 17.453239,4.53304091 17.0563561,4.53304091" id="Fill-5" fill="#9855FC"></path>
                    <path d="M42.8452898,19.5899455 L41.8689385,19.5899455 C41.5816068,19.5899455 41.3519337,19.3331727 41.3519337,19.0477636 L41.3519337,17.1358091 C41.3519337,16.8222409 41.5816068,16.5941045 41.8689385,16.5941045 L42.8452898,16.5941045 L42.8452898,13.4269227 C42.8452898,13.1415136 43.1037922,12.8847409 43.3911239,12.8847409 L45.7469556,12.8565818 C46.0338068,12.8565818 46.26348,13.1133545 46.26348,13.3982864 L46.26348,16.5941045 L48.7913263,16.5941045 C49.1074873,16.5941045 49.3371605,16.8222409 49.3371605,17.1358091 L49.3371605,19.0477636 C49.3371605,19.3331727 49.1074873,19.5899455 48.7913263,19.5899455 L46.26348,19.5899455 L46.26348,24.1550591 C46.26348,24.9544909 46.6944776,25.0685591 47.1543044,25.0685591 C47.64248,25.0685591 48.2459727,24.8690591 48.5616532,24.7545136 C48.8778141,24.6404455 49.1074873,24.78315 49.1934946,25.0685591 L49.768158,26.8659682 C49.8829946,27.1513773 49.7393288,27.4367864 49.4519971,27.5513318 C49.3088117,27.6362864 47.4411556,28.2925364 46.0338068,28.2925364 C43.8221215,28.2925364 42.8452898,26.9232409 42.8452898,24.6118091 L42.8452898,19.5899455 Z" id="Fill-7" fill="#211548"></path>
                    <path d="M52.1521463,8.57635227 C52.1521463,8.29094318 52.4106488,8.03417045 52.6979805,8.03417045 L55.1398195,8.03417045 C55.4266707,8.03417045 55.6856537,8.29094318 55.6856537,8.57635227 L55.6856537,17.2503068 C56.2598366,16.8221932 57.3803341,16.3086477 58.7300244,16.3086477 C62.3783683,16.3086477 63.8722049,19.1054659 63.8722049,21.9872386 L63.8722049,27.465375 C63.8722049,27.7507841 63.6137024,28.0075568 63.3263707,28.0075568 L60.9998488,28.0075568 C60.6836878,28.0075568 60.4540146,27.7507841 60.4540146,27.465375 L60.4540146,21.9586023 C60.4540146,20.3893295 59.5631902,19.3903977 58.1846707,19.3903977 C56.8633293,19.3903977 55.9725049,20.246625 55.6856537,21.4159432 L55.6856537,27.465375 C55.6856537,27.7789432 55.5131585,28.0075568 55.082161,28.0075568 L52.6979805,28.0075568 C52.4106488,28.0075568 52.1521463,27.7507841 52.1521463,27.465375 L52.1521463,8.57635227 Z" id="Fill-9" fill="#211548"></path>
                    <path d="M74.098571,20.8740477 C74.0125637,19.8183205 73.0933905,18.9339341 72.0022027,18.9339341 C70.8528759,18.9339341 69.9048734,19.7901614 69.7612076,20.8740477 L74.098571,20.8740477 Z M72.0877295,16.3089341 C75.0470539,16.3089341 77.4595832,18.5344568 77.4595832,21.6162068 C77.4595832,21.8161841 77.4312344,22.1865477 77.4024051,22.386525 C77.3730954,22.6719341 77.1145929,22.8719114 76.856571,22.8719114 L69.5031856,22.8719114 C69.5887124,24.0417068 70.5943734,25.3542068 72.2602246,25.3542068 C73.1505685,25.3542068 73.9842149,25.011525 74.5012198,24.6406841 C74.7885515,24.4693432 75.0470539,24.4120705 75.2478978,24.6406841 L76.4255734,25.9813432 C76.6268978,26.1813205 76.6840759,26.4948886 76.3967441,26.7235023 C75.4492222,27.6078886 73.9842149,28.292775 72.1165588,28.292775 C68.6695393,28.292775 66.2281807,25.5818659 66.2281807,22.3006159 C66.2281807,19.0766386 68.6695393,16.3089341 72.0877295,16.3089341 Z" id="Fill-11" fill="#211548"></path>
                    <path d="M84.8706271,25.2114545 C86.3932929,25.2114545 87.6281466,23.8989545 87.6281466,22.2724091 C87.6281466,20.6745 86.3932929,19.3906364 84.8706271,19.3906364 C83.319132,19.3906364 82.1131076,20.6745 82.1131076,22.2724091 C82.1131076,23.8989545 83.319132,25.2114545 84.8706271,25.2114545 M84.8706271,16.3088864 C88.1168027,16.3088864 90.7594856,19.0479545 90.7594856,22.2724091 C90.7594856,25.5536591 88.1168027,28.2927273 84.8706271,28.2927273 C81.6244515,28.2927273 78.9817685,25.5536591 78.9817685,22.2724091 C78.9817685,19.0479545 81.6244515,16.3088864 84.8706271,16.3088864" id="Fill-13" fill="#211548"></path>
                    <path d="M93.3162093,17.136 C93.3162093,16.8224318 93.5747117,16.5938182 93.8620434,16.5938182 L94.9537117,16.5938182 C95.2122141,16.5938182 95.3847093,16.7365227 95.4707166,16.9651364 L95.8728849,18.0781364 C96.2750532,17.5068409 97.3378922,16.3088864 99.11858,16.3088864 C100.469231,16.3088864 101.675256,16.7365227 101.330746,17.4500455 L100.267907,19.3047273 C100.124241,19.5615 99.8369093,19.6755682 99.6072361,19.5615 C99.5207483,19.5328636 99.0902312,19.3906364 98.7740702,19.3906364 C97.6252239,19.3906364 96.9357239,20.1609545 96.7343995,20.5604318 L96.7343995,27.4656136 C96.7343995,27.8646136 96.4758971,28.0073182 96.0737288,28.0073182 L93.8620434,28.0073182 C93.5747117,28.0073182 93.3162093,27.7505455 93.3162093,27.4656136 L93.3162093,17.136 Z" id="Fill-15" fill="#211548"></path>
                    <path d="M110.034734,20.8740477 C109.948247,19.8183205 109.029073,18.9339341 107.937886,18.9339341 C106.788559,18.9339341 105.840556,19.7901614 105.69689,20.8740477 L110.034734,20.8740477 Z M108.023412,16.3089341 C110.982737,16.3089341 113.395266,18.5344568 113.395266,21.6162068 C113.395266,21.8161841 113.366917,22.1865477 113.338088,22.386525 C113.308778,22.6719341 113.050276,22.8719114 112.791773,22.8719114 L105.438388,22.8719114 C105.524395,24.0417068 106.530056,25.3542068 108.196388,25.3542068 C109.086251,25.3542068 109.919898,25.011525 110.436903,24.6406841 C110.724234,24.4693432 110.982737,24.4120705 111.183581,24.6406841 L112.361256,25.9813432 C112.562581,26.1813205 112.619759,26.4948886 112.332427,26.7235023 C111.384905,27.6078886 109.919898,28.292775 108.052242,28.292775 C104.605222,28.292775 102.163864,25.5818659 102.163864,22.3006159 C102.163864,19.0766386 104.605222,16.3089341 108.023412,16.3089341 Z" id="Fill-17" fill="#211548"></path>
                    <path d="M115.808564,17.136 C115.808564,16.8224318 116.067067,16.5938182 116.354398,16.5938182 L117.417237,16.5938182 C117.67574,16.5938182 117.848235,16.7365227 117.905413,16.9078636 L118.307581,17.9922273 C118.796237,17.4500455 120.117579,16.3088864 122.156769,16.3088864 C123.794271,16.3088864 124.943598,16.9365 125.89112,18.0781364 C126.379776,17.5641136 127.873132,16.3088864 129.941632,16.3088864 C133.618325,16.3088864 134.968496,19.0193182 134.968496,22.0156364 L134.968496,27.4656136 C134.968496,27.7505455 134.738342,28.0073182 134.422662,28.0073182 L132.095659,28.0073182 C131.779979,28.0073182 131.550306,27.7505455 131.550306,27.4656136 L131.550306,21.8161364 C131.550306,20.3318182 130.832457,19.3906364 129.395798,19.3906364 C127.729947,19.3906364 126.982789,20.5885909 126.982789,20.5885909 C126.982789,20.5885909 127.011137,21.1594091 127.011137,21.6729545 L127.011137,27.4656136 C127.011137,27.7505455 126.752635,28.0073182 126.465784,28.0073182 L124.311276,28.0073182 C123.995115,28.0073182 123.765923,27.7505455 123.765923,27.4656136 L123.765923,21.8161364 C123.765923,20.3318182 123.105252,19.3906364 121.640245,19.3906364 C120.203586,19.3906364 119.514086,20.4177273 119.226754,21.1880455 L119.226754,27.4656136 C119.226754,27.7505455 118.968252,28.0073182 118.681401,28.0073182 L116.354398,28.0073182 C116.067067,28.0073182 115.808564,27.7505455 115.808564,27.4656136 L115.808564,17.136 Z" id="Fill-19" fill="#211548"></path>
                    <path d="M138.185986,17.136 C138.185986,16.8224318 138.444489,16.5938182 138.73182,16.5938182 L139.823489,16.5938182 C140.081991,16.5938182 140.254486,16.7365227 140.340494,16.9651364 L140.742662,18.0781364 C141.14483,17.5068409 142.207669,16.3088864 143.988357,16.3088864 C145.339008,16.3088864 146.545033,16.7365227 146.200523,17.4500455 L145.137684,19.3047273 C144.994018,19.5615 144.706686,19.6755682 144.477013,19.5615 C144.390525,19.5328636 143.960008,19.3906364 143.643847,19.3906364 C142.495001,19.3906364 141.805501,20.1609545 141.604177,20.5604318 L141.604177,27.4656136 C141.604177,27.8646136 141.345674,28.0073182 140.943506,28.0073182 L138.73182,28.0073182 C138.444489,28.0073182 138.185986,27.7505455 138.185986,27.4656136 L138.185986,17.136 Z" id="Fill-21" fill="#9855FC"></path>
                    <path d="M154.904992,20.8740477 C154.818504,19.8183205 153.899331,18.9339341 152.808143,18.9339341 C151.658816,18.9339341 150.710814,19.7901614 150.567148,20.8740477 L154.904992,20.8740477 Z M152.89367,16.3089341 C155.852994,16.3089341 158.265524,18.5344568 158.265524,21.6162068 C158.265524,21.8161841 158.237175,22.1865477 158.208346,22.386525 C158.179036,22.6719341 157.920533,22.8719114 157.662031,22.8719114 L150.308646,22.8719114 C150.394653,24.0417068 151.400314,25.3542068 153.066646,25.3542068 C153.956509,25.3542068 154.790155,25.011525 155.30716,24.6406841 C155.594492,24.4693432 155.852994,24.4120705 156.053838,24.6406841 L157.231514,25.9813432 C157.432838,26.1813205 157.490016,26.4948886 157.202685,26.7235023 C156.255163,27.6078886 154.790155,28.292775 152.922499,28.292775 C149.47548,28.292775 147.034121,25.5818659 147.034121,22.3006159 C147.034121,19.0766386 149.47548,16.3089341 152.89367,16.3089341 Z" id="Fill-23" fill="#9855FC"></path>
                    <path d="M164.498796,25.8677045 C165.417969,25.8677045 166.308793,25.0973864 166.480808,24.7547045 L166.480808,23.1854318 C166.480808,23.1854318 165.705301,22.84275 164.872135,22.84275 C163.752118,22.84275 163.00544,23.4708409 163.00544,24.3838636 C163.00544,25.2400909 163.607971,25.8677045 164.498796,25.8677045 M164.441618,20.7885682 C165.590464,20.7885682 166.538467,21.1026136 166.538467,21.1026136 C166.567296,19.6474091 166.107469,19.1338636 165.04463,19.1338636 C163.981791,19.1338636 162.487954,19.362 161.827284,19.5615 C161.425596,19.6755682 161.224271,19.4187955 161.166613,19.0479545 L160.90811,17.5645909 C160.822103,17.136 161.051776,16.9365 161.310279,16.8505909 C161.540432,16.7656364 163.378779,16.3088864 165.217125,16.3088864 C168.80781,16.3088864 169.640496,18.1630909 169.640496,21.2734773 L169.640496,27.4656136 C169.640496,27.7505455 169.381993,28.0073182 169.094662,28.0073182 L168.060652,28.0073182 C167.859808,28.0073182 167.716142,27.9218864 167.572476,27.6078409 L167.227967,26.8375227 C166.567296,27.4369773 165.504457,28.2927273 163.723289,28.2927273 C161.425596,28.2927273 159.845271,26.8093636 159.845271,24.3838636 C159.845271,22.3578409 161.511123,20.7885682 164.441618,20.7885682" id="Fill-25" fill="#9855FC"></path>
                    <path d="M178.172518,16.3086955 C179.953206,16.3086955 181.332206,17.0222182 182.423874,18.3347182 C182.625198,18.5914909 182.567059,18.9336955 182.280208,19.1336727 L180.958867,20.3893773 C180.700364,20.6170364 180.441862,20.4748091 180.241018,20.3034682 C179.781191,19.7899227 179.063342,19.3904455 178.259006,19.3904455 C176.70751,19.3904455 175.443347,20.7029455 175.443347,22.3008545 C175.443347,23.9274 176.679162,25.2112636 178.229696,25.2112636 C179.46503,25.2112636 180.010864,24.6118091 180.527869,24.1269 C180.728713,23.9274 181.016525,23.8701273 181.245718,24.0414682 L182.481532,25.0971955 C182.768384,25.3253318 182.883701,25.6107409 182.682376,25.89615 C181.706025,27.40815 180.183359,28.2925364 178.143689,28.2925364 C174.897993,28.2925364 172.053986,25.7248091 172.053986,22.3008545 C172.053986,18.9336955 174.955171,16.3086955 178.172518,16.3086955" id="Fill-27" fill="#9855FC"></path>
                    <path d="M185.181345,8.57635227 C185.181345,8.29094318 185.439848,8.03417045 185.72718,8.03417045 L188.169019,8.03417045 C188.45587,8.03417045 188.714853,8.29094318 188.714853,8.57635227 L188.714853,17.2503068 C189.289036,16.8221932 190.409533,16.3086477 191.759223,16.3086477 C195.407567,16.3086477 196.901404,19.1054659 196.901404,21.9872386 L196.901404,27.465375 C196.901404,27.7507841 196.642901,28.0075568 196.35557,28.0075568 L194.029048,28.0075568 C193.712887,28.0075568 193.482733,27.7507841 193.482733,27.465375 L193.482733,21.9586023 C193.482733,20.3893295 192.59287,19.3903977 191.21387,19.3903977 C189.892528,19.3903977 189.001704,20.246625 188.714853,21.4159432 L188.714853,27.465375 C188.714853,27.7789432 188.542358,28.0075568 188.11136,28.0075568 L185.72718,28.0075568 C185.439848,28.0075568 185.181345,27.7507841 185.181345,27.465375 L185.181345,8.57635227 Z" id="Fill-29" fill="#9855FC"></path>
                </g>
            </g>
        </g>
    </g>
</svg>